HIERARCHY
ROOT Hips
{
	OFFSET 0.000000 0.000000 0.000000
	CHANNELS 6 Xposition Yposition Zposition Zrotation Yrotation Xrotation 
	JOINT LHipJoint
	{
		OFFSET 0.000000 0.000000 0.000000
		CHANNELS 3 Zrotation Yrotation Xrotation
		JOINT LeftUpLeg
		{
			OFFSET 1.363060 -1.794630 0.839290
			CHANNELS 3 Zrotation Yrotation Xrotation
			JOINT LeftLeg
			{
				OFFSET 2.448110 -6.726130 0.000000
				CHANNELS 3 Zrotation Yrotation Xrotation
				JOINT LeftFoot
				{
					OFFSET 2.562200 -7.039590 0.000000
					CHANNELS 3 Zrotation Yrotation Xrotation
					JOINT LeftToeBase
					{
						OFFSET 0.157640 -0.433110 2.322550
						CHANNELS 3 Zrotation Yrotation Xrotation
						End Site
						{
							OFFSET 0.000000 0.000000 0.000000
						}
					}
				}
			}
		}
	}
	JOINT RHipJoint
	{
		OFFSET 0.000000 0.000000 0.000000
		CHANNELS 3 Zrotation Yrotation Xrotation
		JOINT RightUpLeg
		{
			OFFSET -1.305520 -1.794630 0.839290
			CHANNELS 3 Zrotation Yrotation Xrotation
			JOINT RightLeg
			{
				OFFSET -2.542530 -6.985550 0.000000
				CHANNELS 3 Zrotation Yrotation Xrotation
				JOINT RightFoot
				{
					OFFSET -2.568260 -7.056230 0.000000
					CHANNELS 3 Zrotation Yrotation Xrotation
					JOINT RightToeBase
					{
						OFFSET -0.164730 -0.452590 2.363150
						CHANNELS 3 Zrotation Yrotation Xrotation
						End Site
						{
							OFFSET 0.000000 0.000000 0.000000
						}
					}
				}
			}
		}
	}
	JOINT LowerBack
	{
		OFFSET 0.000000 0.000000 0.000000
		CHANNELS 3 Zrotation Yrotation Xrotation
		JOINT Spine
		{
			OFFSET 0.028270 2.035590 -0.193380
			CHANNELS 3 Zrotation Yrotation Xrotation
			JOINT Spine1
			{
				OFFSET 0.056720 2.048850 -0.042750
				CHANNELS 3 Zrotation Yrotation Xrotation
				JOINT Neck
				{
					OFFSET 0.000000 0.000000 0.000000
					CHANNELS 3 Zrotation Yrotation Xrotation
					JOINT Neck1
					{
						OFFSET -0.054170 1.746240 0.172020
						CHANNELS 3 Zrotation Yrotation Xrotation
						JOINT Head
						{
							OFFSET 0.104070 1.761360 -0.123970
							CHANNELS 3 Zrotation Yrotation Xrotation
							End Site
							{
								OFFSET 0.000000 0.000000 0.000000
							}
						}
					}
				}
				JOINT LeftShoulder
				{
					OFFSET 0.000000 0.000000 0.000000
					CHANNELS 3 Zrotation Yrotation Xrotation
					JOINT LeftArm
					{
						OFFSET 3.362410 1.200890 -0.311210
						CHANNELS 3 Zrotation Yrotation Xrotation
						JOINT LeftForeArm
						{
							OFFSET 4.983000 -0.000000 -0.000000
							CHANNELS 3 Zrotation Yrotation Xrotation
							JOINT LeftHand
							{
								OFFSET 3.483560 -0.000000 -0.000000
								CHANNELS 3 Zrotation Yrotation Xrotation
								JOINT LeftFingerBase
								{
									OFFSET 0.000000 0.000000 0.000000
									CHANNELS 3 Zrotation Yrotation Xrotation
									JOINT LeftHandIndex1
									{
										OFFSET 0.715260 -0.000000 -0.000000
										CHANNELS 3 Zrotation Yrotation Xrotation
										End Site
										{
											OFFSET 0.000000 0.000000 0.000000
										}
									}
								}
								JOINT LThumb
								{
									OFFSET 0.000000 0.000000 0.000000
									CHANNELS 3 Zrotation Yrotation Xrotation
									End Site
									{
										OFFSET 0.000000 0.000000 0.000000
									}
								}
							}
						}
					}
				}
				JOINT RightShoulder
				{
					OFFSET 0.000000 0.000000 0.000000
					CHANNELS 3 Zrotation Yrotation Xrotation
					JOINT RightArm
					{
						OFFSET -3.136600 1.374050 -0.404650
						CHANNELS 3 Zrotation Yrotation Xrotation
						JOINT RightForeArm
						{
							OFFSET -5.241900 -0.000000 -0.000000
							CHANNELS 3 Zrotation Yrotation Xrotation
							JOINT RightHand
							{
								OFFSET -3.444170 -0.000000 -0.000000
								CHANNELS 3 Zrotation Yrotation Xrotation
								JOINT RightFingerBase
								{
									OFFSET 0.000000 0.000000 0.000000
									CHANNELS 3 Zrotation Yrotation Xrotation
									JOINT RightHandIndex1
									{
										OFFSET -0.622530 -0.000000 -0.000000
										CHANNELS 3 Zrotation Yrotation Xrotation
										End Site
										{
											OFFSET 0.000000 0.000000 0.000000
										}
									}
								}
								JOINT RThumb
								{
									OFFSET 0.000000 0.000000 0.000000
									CHANNELS 3 Zrotation Yrotation Xrotation
									End Site
									{
										OFFSET 0.000000 0.000000 0.000000
									}
								}
							}
						}
					}
				}
			}
		}
	}
}
MOTION
Frames: 7
Frame Time: 0.008333
-10.823390 16.832279 2.417541 -67.606078 85.927355 -45.099440 -11.863486 1.512791 -3.151620 -2.816576 3.276316 -5.382720 -0.698458 1.633639 28.142547 0.587856 2.172675 3.553023 0.341500 0.000000 -75.688800 7.694753 0.249552 0.547646 6.191990 7.306686 -40.645456 2.679923 -1.133956 17.688291 0.457604 2.782667 6.977842 0.235500 0.000000 -46.602000 4.374888 -1.365192 5.726792 -0.218649 -1.395037 -1.639183 -7.938263 -1.390357 0.377666 8.160416 3.943965 5.957980 -5.407861 -0.439962 3.194737 0.000000 0.000000 0.000000 -2.926029 -5.154927 0.337642 -60.233362 -22.326562 13.459774 -0.924941 -75.667762 -0.035243 7.593530 -4.216079 -0.313589 -0.204073 0.416156 -0.000000 0.000000 0.000000 0.000000 0.000000 0.000000 0.000000 20.345158 0.034296 0.770973 57.126345 13.598314 -1.598027 2.954527 27.259415 0.009460 0.681488 7.322015 0.040520 0.061412 -0.084643 -0.000000 0.000000 0.000000 0.000000 0.000000 0.000000 0.000000 
-10.661999 16.819301 2.428026 -72.698609 85.557304 -50.316814 -12.039247 1.434337 -3.238819 -2.078759 3.501432 -5.957021 -0.519610 1.793876 30.289446 0.648858 2.309261 4.625796 0.367600 -0.000000 -74.976900 7.555791 0.132079 0.451441 6.805553 7.805746 -40.755288 2.604640 -1.339621 20.016617 0.309579 2.057412 5.719145 0.018000 -0.000000 -45.371300 4.937909 -1.395748 5.934138 -0.109842 -1.433221 -1.613237 -7.968096 -1.434729 0.355235 8.475957 4.383722 6.087473 -5.419367 -0.439229 3.225885 0.000000 0.000000 0.000000 -3.350301 -5.049497 0.378992 -60.574157 -21.648499 12.477400 -1.001948 -74.461325 -0.038291 8.292869 -4.127219 -0.334533 -0.208742 0.401919 -0.000000 0.000000 0.000000 0.000000 0.000000 0.000000 0.000000 20.708736 0.274687 0.739250 56.792854 14.368902 -2.322800 2.992190 26.098254 0.009572 0.440695 7.581693 0.025611 0.063047 -0.083580 -0.000000 0.000000 0.000000 0.000000 0.000000 0.000000 0.000000 
-10.504340 16.813897 2.439330 -77.923533 85.267936 -55.663445 -12.207424 1.347215 -3.315387 -1.428332 3.672784 -6.704632 -0.338984 1.953573 32.604682 0.730042 2.557631 5.764245 0.416600 0.000000 -73.240700 7.436403 0.034186 0.318578 7.408881 8.043194 -40.678377 2.557863 -1.498995 21.927019 0.168151 1.396265 4.416354 -0.155900 -0.000000 -44.882100 5.411998 -1.450743 6.165768 -0.017704 -1.490519 -1.580281 -7.990063 -1.498290 0.339972 8.840691 4.810033 6.218265 -5.417330 -0.437795 3.257642 0.000000 0.000000 0.000000 -3.752676 -4.979645 0.416711 -60.955916 -20.957083 11.497287 -1.082086 -73.066061 -0.041983 9.153680 -3.961610 -0.354093 -0.213848 0.385229 -0.000000 0.000000 0.000000 0.000000 0.000000 0.000000 0.000000 21.066038 0.484671 0.698492 56.563833 15.219982 -3.217354 3.025135 24.778843 0.009636 0.158166 7.823365 0.006801 0.064743 -0.082528 -0.000000 0.000000 0.000000 0.000000 0.000000 0.000000 0.000000 
-10.350378 16.815729 2.451910 -83.481652 85.058453 -61.341739 -12.362926 1.253986 -3.377185 -0.889067 3.785086 -7.611432 -0.161494 2.108722 35.047591 0.834815 2.976580 6.893083 0.507200 0.000000 -70.456600 7.341747 -0.045722 0.150226 7.983179 8.002815 -40.431936 2.540851 -1.617482 23.428226 0.043126 0.849308 3.130856 -0.276900 0.000000 -45.069801 5.786314 -1.524345 6.411922 0.056117 -1.561937 -1.545046 -7.999479 -1.576554 0.321739 9.244330 5.263885 6.364341 -5.393991 -0.435468 3.294233 0.000000 0.000000 0.000000 -4.134736 -4.956182 0.456324 -61.363052 -20.247661 10.541457 -1.162376 -71.486242 -0.046074 10.162211 -3.728153 -0.369871 -0.218858 0.366479 -0.000000 0.000000 0.000000 0.000000 0.000000 0.000000 0.000000 21.371715 0.722562 0.648682 56.481478 16.038556 -4.396025 3.047897 23.380711 0.009606 -0.135501 8.019121 -0.013908 0.066090 -0.081696 -0.000000 0.000000 0.000000 0.000000 0.000000 0.000000 0.000000 
-10.199750 16.824263 2.465986 -89.497947 84.917739 -67.474416 -12.501346 1.156873 -3.423510 -0.479344 3.841230 -8.659109 0.007945 2.256855 37.571495 0.964617 3.619161 7.935662 0.661000 0.000000 -66.695400 7.276146 -0.108627 -0.051654 8.509809 7.684967 -40.042977 2.550895 -1.701829 24.551826 -0.057113 0.452707 1.926655 -0.344701 -0.000000 -45.793600 6.050573 -1.608250 6.667157 0.108654 -1.639948 -1.503015 -7.996414 -1.660790 0.319604 9.668381 5.640584 6.491833 -5.357992 -0.432593 3.326101 0.000000 0.000000 0.000000 -4.484376 -4.973131 0.487934 -61.791537 -19.548176 9.635544 -1.239597 -69.728096 -0.050191 11.287595 -3.443959 -0.379967 -0.223056 0.346039 0.000000 0.000000 0.000000 0.000000 0.000000 0.000000 0.000000 21.644197 0.883022 0.590393 56.514640 16.941831 -5.666085 3.062559 21.872104 0.009495 -0.513791 8.188050 -0.041719 0.067805 -0.081100 -0.000000 0.000000 0.000000 0.000000 0.000000 0.000000 0.000000 
-10.052160 16.838698 2.481537 -96.021468 84.823820 -74.112453 -12.622896 1.057347 -3.454578 -0.203576 3.856773 -9.827543 0.165890 2.396747 40.130696 1.118895 4.519933 8.822980 0.895600 -0.000000 -62.139500 7.239498 -0.158040 -0.280604 8.976117 7.112496 -39.541830 2.582579 -1.759039 25.345434 -0.127241 0.220584 0.866193 -0.367800 0.000000 -46.873099 6.210778 -1.694375 6.922647 0.141856 -1.717954 -1.460169 -7.975805 -1.745158 0.318118 10.095652 6.019856 6.623659 -5.299556 -0.428911 3.359758 0.000000 0.000000 0.000000 -4.814379 -5.024262 0.522114 -62.226205 -18.859619 8.808472 -1.312875 -67.790551 -0.053952 12.489909 -3.127663 -0.382679 -0.225971 0.324464 0.000000 0.000000 0.000000 0.000000 0.000000 0.000000 0.000000 21.822431 1.070543 0.523694 56.707178 17.758549 -7.173410 3.062158 20.384926 0.009242 -0.918177 8.298030 -0.072029 0.069211 -0.080958 -0.000000 0.000000 0.000000 0.000000 0.000000 0.000000 0.000000 
-9.907087 16.858214 2.498330 -102.955367 84.752370 -81.157115 -12.725696 0.957402 -3.473204 -0.066318 3.848126 -11.091510 0.309789 2.528125 42.672220 1.296743 5.698803 9.506772 1.222300 0.000000 -57.070600 7.232850 -0.194976 -0.529640 9.367820 6.323133 -38.963913 2.627864 -1.796597 25.870895 -0.164689 0.152268 0.001940 -0.357701 -0.000000 -48.119099 6.269708 -1.772881 7.173714 0.155816 -1.787045 -1.415422 -7.937322 -1.820231 0.323584 10.506717 6.365659 6.746588 -5.223092 -0.424640 3.391249 0.000000 0.000000 0.000000 -5.122888 -5.098502 0.556328 -62.661833 -18.196918 8.081692 -1.381153 -65.680691 -0.056948 13.715131 -2.801588 -0.377705 -0.227026 0.302224 0.000000 0.000000 0.000000 0.000000 0.000000 0.000000 0.000000 21.905468 1.256394 0.450001 57.039758 18.507032 -8.799895 3.046836 18.957026 0.008842 -1.371525 8.355065 -0.106040 0.070537 -0.081266 -0.000000 0.000000 0.000000 0.000000 0.000000 0.000000 0.000000 
